<?xml version="1.0" encoding="utf-8"?>
<!-- Generator: Adobe Illustrator 25.0.0, SVG Export Plug-In . SVG Version: 6.00 Build 0)  -->
<svg version="1.1" id="Layer_1" xmlns="http://www.w3.org/2000/svg" xmlns:xlink="http://www.w3.org/1999/xlink" x="0px" y="0px"
	 viewBox="0 0 104 125" style="enable-background:new 0 0 104 125;" xml:space="preserve">
<style type="text/css">
	.st0{fill:#0C8B44;}
	.st1{fill:#FFFFFF;}
</style>
<g>
	<g>
		<path class="st0" d="M97.3,16.5C85.7-0.1,62.8-5,46.2,5.6L17.2,24.1c-7.9,5-13.4,13.1-15.1,22.4C0.7,54.2,1.9,62.1,5.5,69
			c-2.5,3.8-4.2,8-5,12.5c-1.7,9.4,0.5,19.1,6.1,26.9c11.6,16.6,34.5,21.5,51.1,11l29.1-18.5c7.9-5,13.4-13.1,15.1-22.4
			c1.4-7.7,0.2-15.6-3.5-22.6c2.5-3.8,4.2-8,5-12.5C105.1,34,102.9,24.3,97.3,16.5"/>
		<path class="st1" d="M43.4,110c-9.4,2.4-19.3-1.2-24.8-9.2c-3.3-4.7-4.7-10.5-3.7-16.2c0.2-0.9,0.4-1.8,0.7-2.7l0.5-1.7l1.5,1.1
			c3.4,2.5,7.3,4.5,11.4,5.7l1.1,0.3L30,88.4c-0.1,1.5,0.3,3.1,1.2,4.3c1.7,2.4,4.6,3.5,7.5,2.8c0.6-0.2,1.2-0.4,1.8-0.8l29.1-18.5
			c1.4-0.9,2.4-2.4,2.7-4.1c0.3-1.7-0.1-3.5-1.1-4.9c-1.7-2.4-4.6-3.5-7.5-2.8c-0.6,0.2-1.2,0.4-1.8,0.8l-11.1,7.1
			c-1.8,1.2-3.8,2-5.9,2.6c-9.4,2.4-19.3-1.2-24.8-9.2c-3.3-4.7-4.7-10.5-3.7-16.2c1-5.6,4.3-10.4,9.1-13.4l29.1-18.5
			c1.8-1.2,3.8-2,5.9-2.6c9.4-2.4,19.3,1.2,24.8,9.2c3.3,4.7,4.7,10.5,3.7,16.2c-0.2,0.9-0.4,1.8-0.7,2.7l-0.5,1.7l-1.5-1.1
			c-3.4-2.5-7.3-4.5-11.4-5.7l-1.1-0.3l0.1-1.1c0.1-1.5-0.3-3.1-1.2-4.3c-1.7-2.4-4.6-3.5-7.5-2.8c-0.6,0.2-1.2,0.4-1.8,0.8
			L34.4,48.8c-1.4,0.9-2.4,2.4-2.7,4.1c-0.3,1.7,0.1,3.5,1.1,4.9c1.7,2.4,4.6,3.5,7.5,2.8c0.6-0.2,1.2-0.4,1.8-0.8l11.1-7.1
			c1.8-1.2,3.8-2,5.9-2.6c9.4-2.4,19.3,1.2,24.8,9.2c3.3,4.7,4.7,10.5,3.7,16.2c-1,5.6-4.3,10.4-9.1,13.4l-29.1,18.5
			C47.5,108.5,45.5,109.4,43.4,110"/>
	</g>
</g>
</svg>
